<svg xmlns="http://www.w3.org/2000/svg" viewBox="0 0 396.84 78.87"><defs><style>.cls-1{fill:#e60012;fill-rule:evenodd;}</style></defs><g id="图层_2" data-name="图层 2"><g id="图层_1-2" data-name="图层 1"><path class="cls-1" d="M272.39,26.23A25.91,25.91,0,0,0,257.5,22.6a32.9,32.9,0,0,0-14.43,4.31c-18.53,10.32-24.86,35.86-9,47.34,8.8,6.38,19.44,5.27,29.08.74l-.56,3.84h15.17L288.3,22.58H273.14l-.75,3.64Zm-18.51,9.91c9.08-1.65,16.26,5,14.71,14.31A18.91,18.91,0,0,1,253.7,65.29c-9.29,1.64-16.5-5.11-14.91-14.3A18.76,18.76,0,0,1,253.88,36.14Z"/><path class="cls-1" d="M99.58,26.22A35.74,35.74,0,0,0,93,23.46c-16.45-4.38-34.56,7.8-39.38,23.91-6,20.15,9.93,35.4,29.85,30.11a44.21,44.21,0,0,0,6.89-2.58l-.6,3.94h15.08l10.61-56.25H100.41l-.83,3.63ZM81.16,36.09c9.1-1.6,16.23,5.13,14.67,14.26A18.8,18.8,0,0,1,81,65.18c-9.25,1.66-16.31-5-14.86-14.21C67.27,43.49,73.74,37.4,81.16,36.09Z"/><path class="cls-1" d="M390.05,68.16c-.68-.73-7.26-7.37-7.72-7.89-2.32,1.78-7.27,6.29-15.47,5.79-5.91-.37-10.66-4.79-10.65-11h39c1.78-7.45,2.76-15.49-.31-22.56-11.42-26.32-57.62-7.42-53.71,26.83a20.59,20.59,0,0,0,10.24,16.08c6,3.38,14.32,4.34,21.95,2.46a32.67,32.67,0,0,0,9.36-3.85,54.91,54.91,0,0,0,7.35-5.91ZM357.86,45.21c.28-2.33,3.07-6,4.44-7.28,10.16-9.54,21-2.32,19.28,7.3Z"/><path class="cls-1" d="M307.29,25.12l.35-2.53H292.57L282,78.83l15.12,0q2.41-12.72,4.82-25.43c1.34-7.19,2.63-16.44,12.29-18.07,5-.94,8.85.23,10.21,4.36,1.26,3.85-.29,9.54-1,13.39-1.64,8.58-3.19,17.16-4.72,25.75H333c1.43-7.35,2.74-14.63,4.13-22,1-5.38,4-17.62,3.58-22.64-.59-7.71-5.34-12.2-12.41-13.55C321.59,19.38,313.47,20.21,307.29,25.12Z"/><path class="cls-1" d="M0,78.83H16.8l5.51-29.17L9.63,41.37c1.1-.59,15.58-8.21,15.82-8.36.88-4.72,1.55-8.56,2.3-12.82A6.94,6.94,0,0,1,30,16.55a5.81,5.81,0,0,1,3.64-1.27h29.7L66.2,0C54.05,0,41.91,0,29.84,0a18.32,18.32,0,0,0-18,14.52c-.36,1.5-1.2,6.46-1.57,8.41C7.09,39.53,3.31,60.43,0,78.83Z"/><path class="cls-1" d="M160.41,39.38h8.15c0,2.51-3.73,20.3-4.48,24.65-2.31,13.63,9.38,14.83,16.85,14.83,1.42,0,6.86,0,8.38,0l2.83-14.9h-6.22c-4.06,0-4.43-1.3-3-8.87,1-5.2,1.77-10.79,3-15.69l10.85,0,3.13-16.78H189.06L191.4,9.84c-5.76,3.82-14.17,9.35-19.43,12.75h-8.46C162.74,26.6,160.82,36.87,160.41,39.38Z"/><path class="cls-1" d="M118.31,62.3l-7.82,10.53c15.6,12.15,44.42,5.16,44.87-14,.25-10.8-10.81-12.62-17.9-17.38-1.58-1-3.74-2.74-4.47-4.41-1.1-2.57,1.1-4.73,2.74-5.5,5-2.37,11.35,1.89,13.55,3.16.85-.74,7.69-7,9-8.22-5.7-6.18-18.29-8-27.1-5s-15.93,12.09-13.86,20.68c2.22,9.18,14.15,11,19.95,15.27,4.65,3.46.35,12.11-12.68,7.52C122.44,64.19,119.28,62.8,118.31,62.3Z"/><path class="cls-1" d="M219.32,78.84l2.77-14.91c-3.81,0-6.5.39-7.06-3.22-.17-1.12.57-5.32,1.41-10,3-16.9,6.29-33.79,9.44-50.66H208.43q-5.67,30-11.28,60c-.83,4.45-1.87,8.14.18,12.33,2.66,5.44,8.82,6.46,14.77,6.51C214.6,78.86,217.16,78.83,219.32,78.84Z"/><path class="cls-1" d="M18,41.16c3.73,2.56,21.44,13.93,26.55,17.18,1.12-5.62,5.54-28.83,6.46-34.13Z"/></g></g></svg>