<svg id="Layer_1" data-name="Layer 1" xmlns="http://www.w3.org/2000/svg" viewBox="0 0 963.45 629.781">
  <path d="M963.45,609.9H0c10.557-26.921,30.053-49.759,57.535-56.534,40.2-9.9,82.749,17.315,122.862,7.084,22.79-5.808,40.732-22.733,59.585-36.787,71.126-53.03,168.6-68.7,252.76-40.635,43.993,14.665,84.082,40.309,129.149,51.216,58.275,14.1,119.218,2.407,179.145.48C859.4,532.843,943.028,556.625,963.45,609.9Z" fill="#f3f5fd"></path>
  <g>
    <rect x="200.034" width="582.669" height="421.964" fill="#dee8f5"></rect>
    <rect x="200.034" width="582.669" height="34.76" fill="#c1d8ed"></rect>
    <circle cx="763.188" cy="17.38" r="8.721" fill="#fff"></circle>
    <rect x="222.162" y="57.467" width="351.315" height="192.727" fill="#E21613"></rect>
    <g>
      <g>
        <rect x="222.162" y="328.982" width="351.315" height="12.03" fill="#fff"></rect>
        <rect x="222.162" y="269.511" width="351.315" height="12.03" fill="#fff"></rect>
        <rect x="222.162" y="299.246" width="351.315" height="12.03" fill="#fff"></rect>
      </g>
      <rect x="335.503" y="362.363" width="130.263" height="34.506" fill="#fff"></rect>
    </g>
    <rect x="595.013" y="57.467" width="168.175" height="158.014" fill="#fff"></rect>
    <rect x="595.013" y="238.855" width="168.175" height="158.014" fill="#fff"></rect>
    <g>
      <polygon points="289.134 191.103 337.8 148.754 392.947 191.103 289.134 191.103" fill="#fff"></polygon>
      <polygon points="346.437 191.103 433.019 128.925 498.213 191.103 346.437 191.103" fill="#fff"></polygon>
      <circle cx="374.649" cy="119.24" r="10.761" fill="#fff"></circle>
    </g>
  </g>
  <g>
    <g>
      <path d="M786.771,605.158c-1.9-.319-23.338-3.982-23.338-3.982l3.537-20.7s21.372,3.651,23.266,3.968Z" fill="#FAA896"></path>
      <path d="M751.205,625.013a4.108,4.108,0,0,0,3.693,4.752h0a4.109,4.109,0,0,0,3.92-2.039l12.112-22.755a3.461,3.461,0,0,0,.159-2.885,19.1,19.1,0,0,1-1.46-11.872,17.029,17.029,0,0,1,4.635-8.167,1.547,1.547,0,0,0-.768-2.692l-11.787-1.974a2.679,2.679,0,0,0-3.086,2.21Z" fill="#c1d8ed"></path>
    </g>
    <path d="M853.124,549.17c8.895.37,17.955.63,27.015.854l13.616.3,13.6.245,1.355.024a22.2,22.2,0,0,1,2.277,44.232l-134.4,16.32-5.476-39.72,133.8-20.656,3.632,44.257-13.809.892-13.8.834c-9.215.533-18.433,1.031-27.817,1.417Z" fill="#262626"></path>
    <g>
      <path d="M887.027,596.459c-18.553-2.7-20.405-3.2-21.013-3.36l5.459-20.277c-.062-.017-.142-.039-.239-.06,1.522.332,10.95,1.772,18.815,2.915Z" fill="#FAA896"></path>
      <path d="M910.205,614.51a4.107,4.107,0,0,1-2.724,5.366h0a4.109,4.109,0,0,1-4.235-1.258l-16.211-20.042a3.463,3.463,0,0,1-.7-2.8,19.109,19.109,0,0,0-.82-11.933,17.021,17.021,0,0,0-6.1-7.139,1.547,1.547,0,0,1,.243-2.788l11.2-4.176a2.677,2.677,0,0,1,3.448,1.584Z" fill="#c1d8ed"></path>
    </g>
    <path d="M823.282,594.569c-5.632-.479-11.261-.825-16.89-1.149-5.628-.3-11.257-.6-16.883-.8l-8.44-.325-8.439-.243c-5.626-.187-11.25-.265-16.874-.372l1.949-40.409c10.529,1.472,21.072,2.825,31.612,4.211s21.091,2.662,31.64,3.96l15.834,1.866,15.845,1.776c10.568,1.136,21.137,2.264,31.73,3.194l-4.648,39.83c-10.522-1.534-21.067-2.87-31.613-4.2l-15.828-1.92-15.838-1.83c-10.565-1.167-21.128-2.351-31.7-3.432s-21.147-2.189-31.732-3.181a20.231,20.231,0,0,1,.7-40.338l1.252-.071c5.616-.33,11.233-.629,16.847-1.039l8.422-.576,8.421-.658c5.614-.423,11.226-.948,16.838-1.468,5.612-.547,11.223-1.115,16.832-1.816Z" fill="#262626"></path>
    <polygon points="873.559 543.035 876.519 592.74 791.029 591.736 797.482 547.73 873.559 543.035" fill="#262626"></polygon>
    <g>
      <path d="M741.12,450.075s-.15-12.01-8.735-11.385c-5.416.394-31.151-.8-31.534,1.543-.948,5.8,22.592,7.218,24.728,12.623Z" fill="#FAA896"></path>
      <g>
        <path d="M849.376,448.016s-8.041-3.455-8.041-24.582l-16.165-1.647s3.332,18.669-4.234,25.3Z" fill="#FAA896"></path>
        <g opacity="0.15">
          <path d="M823.876,442.889l12.4-11.2-10.4.744A28.748,28.748,0,0,1,823.876,442.889Z"></path>
        </g>
        <path d="M849.7,414.556c-.58,6.457-3.56,12.772-9.008,15.289a40.5,40.5,0,0,1-19.079,4.188c-17.549,0-17.35-39.917-9.706-48.3s32.333-5.493,36.343,7.142C850.326,399.414,850.254,408.41,849.7,414.556Z" fill="#FAA896"></path>
        <g>
          <circle cx="824.247" cy="410.252" r="1.449" fill="#0f1011"></circle>
          <circle cx="812.777" cy="410.252" r="1.449" fill="#0f1011"></circle>
          <path d="M809.966,407.381a.681.681,0,0,1-.064-1.358l3.822-.361a.681.681,0,1,1,.128,1.355l-3.821.361Z" fill="#0f1011"></path>
          <path d="M827.094,407.381a.745.745,0,0,1-.106-.007l-3.846-.6a.681.681,0,0,1,.209-1.346l3.846.6a.68.68,0,0,1-.1,1.353Z" fill="#0f1011"></path>
          <path d="M824.511,421.68s-5.285,1-9.128,0c0,0,.317,3.509,4.564,3.509S824.511,421.68,824.511,421.68Z" fill="#fff"></path>
        </g>
        <path d="M836.621,399.021c.862,29.174,5.1,31.846,5.1,31.846s13.8-9.92,14.263-27.52c.435-16.5-12.407-25.167-20.7-26.32-31.508-4.382-32.614,24.068-32.614,24.068,15.813,2.711,37.352-1.768,37.352-1.768" fill="#0f1011"></path>
        <path d="M832.049,413.17a6.143,6.143,0,0,0,12.285,0,6.041,6.041,0,0,0-6.142-6.143C833.817,407.242,832.049,409.777,832.049,413.17Z" fill="#FAA896"></path>
        <circle cx="851.697" cy="389.341" r="14.006" fill="#0f1011"></circle>
        <path d="M903.607,533.286l-24.251-72.111a20.224,20.224,0,0,0-5.543-9.2c-4.57-4.57-12.46-7.52-22.08-7.53-.72,5.61-34.78,5.63-35.04.13-1.3.02-2.31.04-2.94.07-9.406.4-14.971,3.009-18.114,7.161l-32.1,31.235-21.414-39.985-18.512,9.914,28,52.279a10.5,10.5,0,0,0,16.579,2.568l25.471-24.786a161.056,161.056,0,0,1,1.808,19.544c.39,32.46-8.38,38.58-4.06,48.5,4.19,9.63,86.52,13.63,87.62-3.31.012-.178.013-.355.019-.533l13.89.424c.112,0,.222,0,.333,0a10.9,10.9,0,0,0,10.332-14.378Zm-25.66-7.9-4.972-.151a63.857,63.857,0,0,1-2.742-18.667c0-1.2.07-2.387.186-3.566Z" fill="#FF5D76"></path>
        <path d="M816.693,444.578c.26,5.5,3.25,13.59,12.48,14.2,12.3.81,21.84-8.72,22.56-14.33h-.03C839.593,444.448,823.753,444.468,816.693,444.578Z" fill="#FAA896"></path>
        <g>
          <g>
            <path d="M845.12,472.056l3.533,52.679a4.545,4.545,0,0,1-4.534,4.849H770.542a4.546,4.546,0,0,1-4.521-4.077l-5.444-52.679a4.544,4.544,0,0,1,4.52-5.012h75.488A4.546,4.546,0,0,1,845.12,472.056Z" fill="#9ebcea"></path>
            <rect x="773.516" y="523.24" width="83.65" height="6.344" rx="3.172" transform="translate(1630.681 1052.824) rotate(180)" fill="#9ebcea"></rect>
          </g>
          <circle cx="802.666" cy="498.7" r="7" fill="#fff"></circle>
        </g>
        <g opacity="0.15">
          <path d="M818.452,418.789a.494.494,0,0,1-.107-.012L814.78,418a.5.5,0,0,1-.364-.656l1.869-5.277a.5.5,0,1,1,.943.334l-1.68,4.743,3.011.661a.5.5,0,0,1-.107.989Z"></path>
        </g>
        <path d="M812.751,536.274c4.49,2.77,11.44,4.08,17.5,4.56l.34-11.04c-2.85-.08-7.23-.38-11.52-.21-1.938-1.58-3.054-2.05-5.044-4.04-2.118-2.118-7.676-3.39-8.726,0S808.811,533.834,812.751,536.274Z" fill="#FAA896"></path>
      </g>
    </g>
  </g>
  <g>
    <g>
      <rect x="112.663" y="378.943" width="10.59" height="56.156" transform="translate(96.812 -16.22) rotate(13.302)" fill="#f0f6ff"></rect>
      <g>
        <rect x="106.583" y="374.359" width="5.818" height="48.777" transform="translate(-70.519 26.479) rotate(-10.452)" fill="#c1d8ed"></rect>
        <rect x="102.662" y="374.716" width="5.818" height="5.386" transform="translate(-68.694 26.39) rotate(-10.775)" fill="#dee8f5"></rect>
      </g>
      <rect x="92.666" y="408.878" width="50.584" height="3.415" transform="translate(-307.289 369.844) rotate(-68.498)" fill="#E21613"></rect>
      <rect x="101.752" y="407.021" width="27.948" height="35.72" fill="#c1d8ed"></rect>
    </g>
    <g>
      <rect x="204.306" y="507.263" width="10.453" height="102.836" transform="translate(419.065 1117.362) rotate(-180)" fill="#c1d8ed"></rect>
      <rect x="212.909" y="507.263" width="10.453" height="102.836" transform="translate(436.271 1117.362) rotate(-180)" fill="#dee8f5"></rect>
    </g>
    <g>
      <rect x="74.1" y="507.263" width="10.453" height="102.836" transform="translate(158.654 1117.362) rotate(-180)" fill="#c1d8ed"></rect>
      <rect x="82.704" y="507.263" width="10.453" height="102.836" transform="translate(175.861 1117.362) rotate(-180)" fill="#dee8f5"></rect>
    </g>
    <g>
      <rect x="175.634" y="507.263" width="10.453" height="102.836" transform="translate(361.722 1117.362) rotate(-180)" fill="#c1d8ed"></rect>
      <rect x="184.238" y="507.263" width="10.453" height="102.836" transform="translate(378.929 1117.362) rotate(-180)" fill="#dee8f5"></rect>
    </g>
    <g>
      <rect x="45.429" y="507.263" width="10.453" height="102.836" transform="translate(101.312 1117.362) rotate(-180)" fill="#c1d8ed"></rect>
      <rect x="54.032" y="507.263" width="10.453" height="102.836" transform="translate(118.518 1117.362) rotate(-180)" fill="#dee8f5"></rect>
    </g>
    <rect x="45.429" y="441.437" width="140.594" height="68.291" fill="#c1d8ed"></rect>
    <rect x="82.768" y="441.437" width="140.594" height="68.291" fill="#dee8f5"></rect>
    <g opacity="0.53">
      <rect x="90.332" y="451.145" width="125.467" height="48.573" fill="#f3f5fd"></rect>
    </g>
    <circle cx="153.066" cy="475.432" r="5.572" fill="#fff"></circle>
  </g>
</svg>